<svg width="124" height="47" viewBox="0 0 124 47" fill="none" xmlns="http://www.w3.org/2000/svg">
<g id="hist 1">
<path id="Vector" d="M3.12013 35.25V9.61364H6.24027V21.0298H19.9789V9.61364H23.099V35.25H19.9789V23.7837H6.24027V35.25H3.12013ZM28.943 35.25V16.0227H31.912V35.25H28.943ZM30.4526 12.8182C29.874 12.8182 29.3749 12.6221 28.9556 12.2298C28.5446 11.8376 28.3391 11.3661 28.3391 10.8153C28.3391 10.2646 28.5446 9.79307 28.9556 9.40082C29.3749 9.00861 29.874 8.8125 30.4526 8.8125C31.0316 8.8125 31.5264 9.00861 31.9374 9.40082C32.3566 9.79307 32.5662 10.2646 32.5662 10.8153C32.5662 11.3661 32.3566 11.8376 31.9374 12.2298C31.5264 12.6221 31.0316 12.8182 30.4526 12.8182ZM51.8438 16.0227C51.6929 14.7543 51.0806 13.7695 50.0071 13.0685C48.9333 12.3676 47.6166 12.017 46.0565 12.017C44.9157 12.017 43.9178 12.2006 43.0622 12.5678C42.2152 12.935 41.5524 13.4399 41.0744 14.0825C40.6047 14.725 40.37 15.4552 40.37 16.2731C40.37 16.9574 40.5332 17.5457 40.8604 18.0381C41.196 18.5221 41.6238 18.9268 42.1438 19.2523C42.6637 19.5694 43.209 19.8323 43.7794 20.0409C44.3498 20.2412 44.8738 20.4039 45.3521 20.5291L47.9688 21.2301C48.6399 21.4054 49.3862 21.6474 50.2082 21.9561C51.0387 22.2649 51.8314 22.6863 52.586 23.2204C53.3495 23.7462 53.9784 24.4221 54.4732 25.2483C54.9683 26.0745 55.2157 27.0884 55.2157 28.2901C55.2157 29.6755 54.8508 30.9272 54.121 32.0455C53.3997 33.1638 52.3428 34.0524 50.9507 34.7119C49.5666 35.371 47.885 35.7006 45.9057 35.7006C44.0604 35.7006 42.4626 35.4045 41.1122 34.812C39.77 34.2192 38.7134 33.3932 37.9416 32.3334C37.1784 31.2735 36.7465 30.0427 36.6458 28.6406H39.8666C39.9504 29.6085 40.2776 30.4099 40.848 31.0441C41.4266 31.6698 42.1565 32.1371 43.0371 32.4462C43.9261 32.7464 44.8824 32.8968 45.9057 32.8968C47.0967 32.8968 48.166 32.7047 49.1137 32.3207C50.0615 31.9286 50.8122 31.3863 51.3658 30.6936C51.9194 29.9925 52.196 29.1747 52.196 28.2401C52.196 27.3888 51.9572 26.6962 51.4789 26.1621C51.0009 25.628 50.3717 25.1941 49.5917 24.8603C48.8117 24.5265 47.9688 24.2344 47.063 23.984L43.8925 23.0827C41.8795 22.5069 40.2858 21.6849 39.1117 20.6168C37.9375 19.5486 37.3503 18.1508 37.3503 16.4233C37.3503 14.9879 37.7403 13.7362 38.5203 12.668C39.3089 11.5914 40.3655 10.7569 41.6909 10.1644C43.0245 9.56356 44.5133 9.26314 46.1572 9.26314C47.8179 9.26314 49.2941 9.55939 50.5858 10.1519C51.8775 10.7361 52.9008 11.5372 53.6557 12.5553C54.4189 13.5734 54.8213 14.7292 54.8632 16.0227H51.8438Z" fill="black"/>
<path id="Vector_2" fill-rule="evenodd" clip-rule="evenodd" d="M49.9941 25.1094C50.5749 25.4096 51.0576 25.7747 51.4426 26.2049C51.9209 26.7389 52.1597 27.4316 52.1597 28.2828C52.1597 29.2174 51.8831 30.0354 51.3295 30.7362C50.7759 31.4289 50.0251 31.9715 49.0774 32.3636C48.1297 32.7475 47.0604 32.9394 45.8694 32.9394C44.8461 32.9394 43.8898 32.7893 43.0008 32.4888C42.1201 32.18 41.3903 31.7127 40.8117 31.0867C40.2413 30.4525 39.9141 29.6514 39.8303 28.6834H36.6095C36.7102 30.0853 37.1421 31.3164 37.9053 32.3759C38.6771 33.4358 39.7337 34.2621 41.0759 34.8546C42.4263 35.4471 44.0241 35.7435 45.8694 35.7435C47.8487 35.7435 49.5303 35.4136 50.9144 34.7544C52.3067 34.0953 53.3634 33.2064 54.0847 32.0881C54.8145 30.9701 55.1794 29.7181 55.1794 28.3329C55.1794 27.1312 54.932 26.1172 54.4369 25.2911C54.4003 25.2297 54.3628 25.1691 54.3244 25.1094H49.9941ZM68.311 18.569V16.0655H64.1842V11.4589H61.2153V16.0655H58.2962V18.569H61.2153V30.5861C61.2153 31.7044 61.4751 32.6306 61.9953 33.365C62.5235 34.0994 63.1863 34.6461 63.9831 35.0047C64.7882 35.3637 65.6102 35.5432 66.4489 35.5432C67.0025 35.5432 67.4595 35.5014 67.8203 35.418C68.1808 35.3428 68.4619 35.2676 68.6632 35.1927L68.0592 32.5387L67.5561 32.6389C67.3465 32.6723 67.0781 32.6891 66.751 32.6891C66.3146 32.6891 65.8995 32.6224 65.5054 32.4888C65.1195 32.3469 64.8006 32.0716 64.5491 31.6627C64.3058 31.2453 64.1842 30.6193 64.1842 29.7848V18.569H68.311ZM75.8281 34.4539C77.1451 35.2803 78.6756 35.6933 80.4202 35.6933C82.1648 35.6933 83.6914 35.2803 84.9999 34.4539C86.3167 33.6279 87.34 32.472 88.0695 30.9865C88.8076 29.5013 89.1767 27.7654 89.1767 25.7792C89.1767 23.7764 88.8076 22.0281 88.0695 20.5343C87.34 19.0405 86.3167 17.8805 84.9999 17.0544C83.6914 16.2282 82.1648 15.8151 80.4202 15.8151C78.6756 15.8151 77.1451 16.2282 75.8281 17.0544C74.5196 17.8805 73.4966 19.0405 72.7585 20.5343C72.0286 22.0281 71.6637 23.7764 71.6637 25.7792C71.6637 27.7654 72.0286 29.5013 72.7585 30.9865C73.4966 32.472 74.5196 33.6279 75.8281 34.4539ZM83.6914 32.0255C82.8358 32.7014 81.7455 33.0395 80.4202 33.0395C79.0952 33.0395 78.0046 32.7014 77.1493 32.0255C76.2937 31.3496 75.6604 30.461 75.2494 29.3593C74.8384 28.2578 74.6329 27.0644 74.6329 25.7792C74.6329 24.4941 74.8384 23.2965 75.2494 22.1866C75.6604 21.0767 76.2937 20.1796 77.1493 19.4953C78.0046 18.811 79.0952 18.4689 80.4202 18.4689C81.7455 18.4689 82.8358 18.811 83.6914 19.4953C84.547 20.1796 85.18 21.0767 85.591 22.1866C86.0023 23.2965 86.2078 24.4941 86.2078 25.7792C86.2078 27.0644 86.0023 28.2578 85.591 29.3593C85.18 30.461 84.547 31.3496 83.6914 32.0255ZM93.7092 16.0655V35.2926H96.6784V23.1255C96.6784 22.2576 96.888 21.4856 97.3072 20.8097C97.735 20.1254 98.314 19.5913 99.0435 19.2074C99.7816 18.8152 100.62 18.6191 101.56 18.6191C101.954 18.6191 102.327 18.6483 102.679 18.7067C103.04 18.7568 103.271 18.7943 103.371 18.8194V15.8151C103.204 15.7984 102.956 15.7859 102.629 15.7775C102.302 15.7692 102.03 15.765 101.811 15.765C100.654 15.765 99.6139 16.0613 98.6913 16.6538C97.7687 17.2463 97.1313 18.0182 96.779 18.9696H96.5777V16.0655H93.7092ZM108.045 42.3778C108.439 42.4613 108.888 42.503 109.392 42.503C110.289 42.503 111.094 42.3444 111.807 42.0274C112.529 41.7101 113.162 41.2219 113.707 40.5628C114.252 39.9118 114.709 39.0899 115.078 38.0967L123.281 16.0655H120.06L114.726 31.3872H114.525L109.19 16.0655H105.97L113.115 35.3928L112.562 36.895C112.201 37.8714 111.803 38.5764 111.367 39.0106C110.939 39.4527 110.448 39.6988 109.895 39.7491C109.341 39.799 108.704 39.7323 107.982 39.5487L107.228 42.1525C107.379 42.2274 107.651 42.3026 108.045 42.3778Z" fill="#017CD6"/>
</g>
</svg>
